<svg xmlns="http://www.w3.org/2000/svg" width="64" height="64" viewBox="0 0 64 64" fill="none">
  <!-- Cup -->
  <path d="M16 32h32v16a8 8 0 01-8 8H24a8 8 0 01-8-8V32z" fill="#C19A6B"/>
  <path d="M24 52c-6.627 0-12-5.373-12-12V32h40v8c0 6.627-5.373 12-12 12H24z" stroke="#8B5E3C" stroke-width="2"/>
  
  <!-- Handle -->
  <path d="M48 36c4 0 6 2 6 4s-2 4-6 4" fill="none" stroke="#8B5E3C" stroke-width="2"/>
  
  <!-- Steam -->
  <path d="M24 12c0 4-4 4-4 8s4 4 4 8" stroke="#8B5E3C" stroke-width="2" stroke-linecap="round"/>
  <path d="M32 8c0 4-4 4-4 8s4 4 4 8" stroke="#8B5E3C" stroke-width="2" stroke-linecap="round"/>
  <path d="M40 4c0 4-4 4-4 8s4 4 4 8" stroke="#8B5E3C" stroke-width="2" stroke-linecap="round"/>
</svg>
